#N canvas 827 239 975 315 12;
#X obj 0 0 cnv 15 975 315 \$0-name_device-s \$0-name_device-r V\ i\ n\ t\ a\ g\ e 368 28 0 48 #e4ded4 #252525 0;
#X obj 41 102 else/knob 50 0 100 0 22 \$0-crackles-level-s \$0-crackles-level-r #dcb674 #7c7c7c #7492dc 0 0 0 0 0 320 0 0 0 empty empty 0 12 6 -15 0 1 0 0;
#X obj 113 216 else/knob 50 0 100 0 28 \$0-crackles-density-s \$0-crackles-density-r #b8b35f #7c7c7c #5f64b8 0 0 11 0 0 320 0 0 0 empty empty 0 12 6 -15 0 1 1 0;
#X obj 184 102 else/knob 50 0 100 0 15 \$0-hiss-level-s \$0-hiss-level-r #89cd50 #7c7c7c #a050cd 0 0 0 0 0 320 0 0 0 empty empty 0 12 6 -15 0 1 0 0;
#X obj 257 216 else/knob 50 40 90 0 60 \$0-hum-pitch-s \$0-hum-pitch-r #cd74b3 #7c7c7c #74cd8e 0 0 16 0 0 320 0 0 60 empty empty 0 12 6 -15 0 1 1 0;
#X obj 323 102 else/knob 50 0 100 0 32 \$0-hum-level-s \$0-hum-level-r #6c85cd #7c7c7c #cdb46c 0 0 0 0 0 320 0 0 0 empty empty 0 12 6 -15 0 1 0 0;
#X obj 394 216 else/knob 50 0 100 0 78 \$0-clicks-density-s \$0-clicks-density-r #71bfcd #7c7c7c #cd8571 0 0 11 0 0 320 0 0 0 empty empty 0 12 6 -15 0 1 1 0;
#X obj 464 102 else/knob 50 0 100 0 21 \$0-clicks-level-s \$0-clicks-level-r #cd8d82 #7c7c7c #82c7cd 0 0 0 0 0 320 0 0 0 empty empty 0 12 6 -15 0 1 0 0;
#X obj 530 216 else/knob 50 0 100 0 6 \$0-pops-density-s \$0-pops-density-r #9289b3 #7c7c7c #aab389 0 0 11 0 0 320 0 0 0 empty empty 0 12 6 -15 0 1 1 0;
#X obj 601 102 else/knob 50 0 100 0 31 \$0-pops-level-s \$0-pops-level-r #8dcd9d #7c7c7c #cd8dbd 0 0 0 0 0 320 0 0 0 empty empty 0 12 6 -15 0 1 0 0;
#X obj 671 216 else/knob 50 0 100 0 15 \$0-riaa-curve-s \$0-riaa-curve-r #6dcdba #7c7c7c #cd6d80 0 0 30 0 0 320 0 0 0 empty empty 0 12 6 -15 0 1 1 0;
#X obj 737 102 else/knob 50 0 100 0 0 \$0-drive-s \$0-drive-r #cd899a #7c7c7c #89cdbd 0 0 142 0 0 320 0 0 0 empty empty 0 12 6 -15 0 1 1 0;
#X obj 7 77 cnv 15 9 9 empty empty Crackles\ Level 20 12 0 14 #e4ded4 #cd635b 0;
#X obj 68 189 cnv 15 9 9 empty empty Crackles\ Density 20 12 0 14 #e4ded4 #b8b35f 0;
#X obj 159 77 cnv 15 9 9 empty empty Hiss\ Level 20 12 0 14 #e4ded4 #89cd50 0;
#X obj 299 77 cnv 15 9 9 empty empty Hum\ Level 20 12 0 14 #e4ded4 #6c85cd 0;
#X obj 228 189 cnv 15 9 9 empty empty Hum\ Pitch 20 12 0 14 #e4ded4 #cd74b3 0;
#X obj 433 77 cnv 15 9 9 empty empty Clicks\ Level 20 12 0 14 #e4ded4 #cd8d82 0;
#X obj 354 189 cnv 15 9 9 empty empty Clicks\ Density 20 12 0 14 #e4ded4 #71bfcd 0;
#X obj 572 77 cnv 15 9 9 empty empty Pops\ Level 20 12 0 14 #e4ded4 #8dcd9d 0;
#X obj 495 189 cnv 15 9 9 empty empty Pops\ Density 20 12 0 14 #e4ded4 #9289b3 0;
#X obj 726 77 cnv 15 9 9 empty empty Drive 20 12 0 14 #e4ded4 #cd899a 0;
#X obj 640 189 cnv 15 9 9 empty empty RIAA\ Curve 20 12 0 14 #e4ded4 #6dcdba 0;
#X obj 32 151 cnv 15 9 9 \$0-crackles-level.label-s \$0-crackles-level.label-r 22\ % 22 12 0 14 #dcd6cd #dcb674 0;
#X obj 175 151 cnv 15 9 9 \$0-hiss-level.label-s \$0-hiss-level.label-r 15\ % 22 12 0 14 #dcd6cd #89cd50 0;
#X obj 313 151 cnv 15 9 9 \$0-hum-level.label-s \$0-hum-level.label-r 32\ % 22 12 0 14 #dcd6cd #6c85cd 0;
#X obj 455 151 cnv 15 9 9 \$0-clicks-level.label-s \$0-clicks-level.label-r 21\ % 22 12 0 14 #dcd6cd #cd8d82 0;
#X obj 591 151 cnv 15 9 9 \$0-pops-level.label-s \$0-pops-level.label-r 31\ % 22 12 0 14 #dcd6cd #8dcd9d 0;
#X obj 728 151 cnv 15 9 9 \$0-drive.label-s \$0-drive.label-r 15\ % 22 12 0 14 #dcd6cd #cd899a 0;
#X obj 103 265 cnv 15 9 9 \$0-crackles-density.label-s \$0-crackles-density.label-r 28\ % 22 12 0 14 #dcd6cd #b8b35f 0;
#X obj 247 265 cnv 15 9 9 \$0-hum-pitch.label-s \$0-hum-pitch.label-r 60\ Hz 22 12 0 14 #dcd6cd #cd74b3 0;
#X obj 385 265 cnv 15 9 9 \$0-clicks-density.label-s \$0-clicks-density.label-r 78\ % 22 12 0 14 #dcd6cd #71bfcd 0;
#X obj 521 265 cnv 15 9 9 \$0-pops-density.label-s \$0-pops-density.label-r 6\ % 24 12 0 14 #dcd6cd #9289b3 0;
#X obj 661 265 cnv 15 9 9 \$0-riaa-curve.label-s \$0-riaa-curve.label-r 15\ % 22 12 0 14 #dcd6cd #6dcdba 0;
#N canvas 0 50 997 602 gui 0;
#N canvas 0 50 450 300 labels 0;
#X obj 8 9 r \$0-crackles-level-s;
#X obj 8 35 t f f, f 33;
#X obj 8 61 makefilename %d\ %%;
#X obj 8 87 pack s \$0;
#X msg 8 113 \; \$2-crackles-level.label-r label \$1;
#X obj 232 61 expr if ($f1 == 100\\\, 1\\\, 0) \; if ($f1 < 100 && $f1 >= 10\\\, 2\\\, 0) \; if ($f1 < 10\\\, 3\\\, 0);
#X obj 232 157 sel 1 2 3, f 21;
#X obj 232 183 \$0;
#X msg 232 209 \; \$1-crackles-level.label-r label_pos 20 12;
#X obj 278 263 \$0;
#X msg 278 289 \; \$1-crackles-level.label-r label_pos 22 12;
#X obj 325 338 \$0;
#X msg 325 364 \; \$1-crackles-level.label-r label_pos 24 12;
#X obj 598 35 t f f, f 33;
#X obj 598 61 makefilename %d\ %%;
#X obj 598 87 pack s \$0;
#X obj 822 61 expr if ($f1 == 100\\\, 1\\\, 0) \; if ($f1 < 100 && $f1 >= 10\\\, 2\\\, 0) \; if ($f1 < 10\\\, 3\\\, 0);
#X obj 822 157 sel 1 2 3, f 21;
#X obj 822 183 \$0;
#X obj 868 263 \$0;
#X obj 915 338 \$0;
#X obj 1178 35 t f f, f 33;
#X obj 1178 61 makefilename %d\ %%;
#X obj 1178 87 pack s \$0;
#X obj 1402 61 expr if ($f1 == 100\\\, 1\\\, 0) \; if ($f1 < 100 && $f1 >= 10\\\, 2\\\, 0) \; if ($f1 < 10\\\, 3\\\, 0);
#X obj 1402 157 sel 1 2 3, f 21;
#X obj 1402 183 \$0;
#X obj 1448 263 \$0;
#X obj 1495 338 \$0;
#X obj 1758 35 t f f, f 33;
#X obj 1758 61 makefilename %d\ %%;
#X obj 1758 87 pack s \$0;
#X obj 1982 61 expr if ($f1 == 100\\\, 1\\\, 0) \; if ($f1 < 100 && $f1 >= 10\\\, 2\\\, 0) \; if ($f1 < 10\\\, 3\\\, 0);
#X obj 1982 157 sel 1 2 3, f 21;
#X obj 1982 183 \$0;
#X obj 2028 263 \$0;
#X obj 2075 338 \$0;
#X obj 2358 35 t f f, f 33;
#X obj 2358 61 makefilename %d\ %%;
#X obj 2358 87 pack s \$0;
#X obj 2582 61 expr if ($f1 == 100\\\, 1\\\, 0) \; if ($f1 < 100 && $f1 >= 10\\\, 2\\\, 0) \; if ($f1 < 10\\\, 3\\\, 0);
#X obj 2582 157 sel 1 2 3, f 21;
#X obj 2582 183 \$0;
#X obj 2628 263 \$0;
#X obj 2675 338 \$0;
#X obj 8 455 t f f, f 33;
#X obj 8 481 makefilename %d\ %%;
#X obj 8 507 pack s \$0;
#X obj 232 481 expr if ($f1 == 100\\\, 1\\\, 0) \; if ($f1 < 100 && $f1 >= 10\\\, 2\\\, 0) \; if ($f1 < 10\\\, 3\\\, 0);
#X obj 232 577 sel 1 2 3, f 21;
#X obj 232 603 \$0;
#X obj 278 683 \$0;
#X obj 325 758 \$0;
#X obj 598 455 t f f, f 33;
#X obj 598 481 makefilename %d\ %%;
#X obj 598 507 pack s \$0;
#X obj 822 481 expr if ($f1 == 100\\\, 1\\\, 0) \; if ($f1 < 100 && $f1 >= 10\\\, 2\\\, 0) \; if ($f1 < 10\\\, 3\\\, 0);
#X obj 822 577 sel 1 2 3, f 21;
#X obj 822 603 \$0;
#X obj 868 683 \$0;
#X obj 915 758 \$0;
#X obj 1178 455 t f f, f 33;
#X obj 1178 507 pack s \$0;
#X obj 1402 481 expr if ($f1 == 100\\\, 1\\\, 0) \; if ($f1 < 100 && $f1 >= 10\\\, 2\\\, 0) \; if ($f1 < 10\\\, 3\\\, 0);
#X obj 1402 577 sel 1 2 3, f 21;
#X obj 1402 603 \$0;
#X obj 1448 683 \$0;
#X obj 1495 758 \$0;
#X obj 1758 455 t f f, f 33;
#X obj 1758 481 makefilename %d\ %%;
#X obj 1758 507 pack s \$0;
#X obj 1982 481 expr if ($f1 == 100\\\, 1\\\, 0) \; if ($f1 < 100 && $f1 >= 10\\\, 2\\\, 0) \; if ($f1 < 10\\\, 3\\\, 0);
#X obj 1982 577 sel 1 2 3, f 21;
#X obj 1982 603 \$0;
#X obj 2028 683 \$0;
#X obj 2075 758 \$0;
#X obj 2358 455 t f f, f 33;
#X obj 2358 481 makefilename %d\ %%;
#X obj 2358 507 pack s \$0;
#X obj 2582 481 expr if ($f1 == 100\\\, 1\\\, 0) \; if ($f1 < 100 && $f1 >= 10\\\, 2\\\, 0) \; if ($f1 < 10\\\, 3\\\, 0);
#X obj 2582 577 sel 1 2 3, f 21;
#X obj 2582 603 \$0;
#X obj 2628 683 \$0;
#X obj 2675 758 \$0;
#X obj 8 895 t f f, f 33;
#X obj 8 921 makefilename %d\ %%;
#X obj 8 947 pack s \$0;
#X obj 232 921 expr if ($f1 == 100\\\, 1\\\, 0) \; if ($f1 < 100 && $f1 >= 10\\\, 2\\\, 0) \; if ($f1 < 10\\\, 3\\\, 0);
#X obj 232 1017 sel 1 2 3, f 21;
#X obj 232 1043 \$0;
#X obj 278 1123 \$0;
#X obj 325 1198 \$0;
#X obj 598 9 r \$0-hiss-level-s;
#X msg 598 113 \; \$2-hiss-level.label-r label \$1;
#X msg 822 209 \; \$1-hiss-level.label-r label_pos 20 12;
#X msg 868 289 \; \$1-hiss-level.label-r label_pos 22 12;
#X msg 915 364 \; \$1-hiss-level.label-r label_pos 24 12;
#X msg 1178 113 \; \$2-hum-level.label-r label \$1;
#X obj 1178 9 r \$0-hum-level-s;
#X msg 1402 209 \; \$1-hum-level.label-r label_pos 20 12;
#X msg 1448 289 \; \$1-hum-level.label-r label_pos 22 12;
#X msg 1495 364 \; \$1-hum-level.label-r label_pos 24 12;
#X obj 1758 9 r \$0-clicks-level-s;
#X msg 1758 113 \; \$2-clicks-level.label-r label \$1;
#X msg 1982 209 \; \$1-clicks-level.label-r label_pos 20 12;
#X msg 2028 289 \; \$1-clicks-level.label-r label_pos 22 12;
#X msg 2075 364 \; \$1-clicks-level.label-r label_pos 24 12;
#X obj 2358 9 r \$0-pops-level-s;
#X msg 2358 113 \; \$2-pops-level.label-r label \$1;
#X msg 2582 209 \; \$1-pops-level.label-r label_pos 20 12;
#X msg 2628 289 \; \$1-pops-level.label-r label_pos 22 12;
#X msg 2675 364 \; \$1-pops-level.label-r label_pos 24 12;
#X obj 598 429 r \$0-crackles-density-s;
#X msg 598 533 \; \$2-crackles-density.label-r label \$1;
#X msg 822 629 \; \$1-crackles-density.label-r label_pos 20 12;
#X msg 868 709 \; \$1-crackles-density.label-r label_pos 22 12;
#X msg 915 784 \; \$1-crackles-density.label-r label_pos 24 12;
#X obj 1178 429 r \$0-hum-pitch-s;
#X msg 1178 533 \; \$2-hum-pitch.label-r label \$1;
#X msg 1402 629 \; \$1-hum-pitch.label-r label_pos 20 12;
#X msg 1448 709 \; \$1-hum-pitch.label-r label_pos 22 12;
#X msg 1495 784 \; \$1-hum-pitch.label-r label_pos 24 12;
#X obj 1758 429 r \$0-clicks-density-s;
#X msg 1758 533 \; \$2-clicks-density.label-r label \$1;
#X msg 1982 629 \; \$1-clicks-density.label-r label_pos 20 12;
#X msg 2028 709 \; \$1-clicks-density.label-r label_pos 22 12;
#X msg 2075 784 \; \$1-clicks-density.label-r label_pos 24 12;
#X obj 2358 429 r \$0-pops-density-s;
#X msg 2358 533 \; \$2-pops-density.label-r label \$1;
#X msg 2582 629 \; \$1-pops-density.label-r label_pos 20 12;
#X msg 2628 709 \; \$1-pops-density.label-r label_pos 22 12;
#X msg 2675 784 \; \$1-pops-density.label-r label_pos 24 12;
#X obj 8 869 r \$0-riaa-curve-s;
#X msg 8 973 \; \$2-riaa-curve.label-r label \$1;
#X msg 232 1069 \; \$1-riaa-curve.label-r label_pos 20 12;
#X msg 278 1149 \; \$1-riaa-curve.label-r label_pos 22 12;
#X msg 325 1224 \; \$1-riaa-curve.label-r label_pos 24 12;
#X obj 1178 481 makefilename %d\ Hz;
#X obj 8 429 r \$0-drive-s;
#X msg 8 533 \; \$2-drive.label-r label \$1;
#X msg 232 629 \; \$1-drive.label-r label_pos 20 12;
#X msg 278 709 \; \$1-drive.label-r label_pos 22 12;
#X msg 325 784 \; \$1-drive.label-r label_pos 24 12;
#X obj 583 895 t f f, f 33;
#X obj 583 921 makefilename %d\ %%;
#X obj 583 947 pack s \$0;
#X obj 807 921 expr if ($f1 == 100\\\, 1\\\, 0) \; if ($f1 < 100 && $f1 >= 10\\\, 2\\\, 0) \; if ($f1 < 10\\\, 3\\\, 0);
#X obj 807 1017 sel 1 2 3, f 21;
#X obj 807 1043 \$0;
#X obj 853 1123 \$0;
#X obj 900 1198 \$0;
#X obj 583 869 r \$0-mix-s;
#X msg 583 973 \; \$2-mix.label-r label \$1;
#X msg 807 1069 \; \$1-mix.label-r label_pos 20 12;
#X msg 853 1149 \; \$1-mix.label-r label_pos 22 12;
#X msg 900 1224 \; \$1-mix.label-r label_pos 24 12;
#X obj 1073 895 t f f, f 33;
#X obj 1073 947 pack s \$0;
#X msg 1073 973 \; \$2-output.label-r label \$1;
#X obj 1073 869 r \$0-output-s;
#X obj 1073 921 makefilename %.2f\ dB;
#X obj 1297 921 expr if ($f1 <= -10 \, 1 \, 0) \; if ($f1 > -10 && $f1 < 0 \, 2 \, 0) \; if ($f1 >= 0 && $f1 < 10 \, 3 \, 0) \; if ($f1 >= 10 \, 4 \, 0);
#X obj 1297 1022 sel 1 2 3 4, f 26;
#X obj 1297 1052 \$0;
#X obj 1339 1132 \$0;
#X obj 1382 1205 \$0;
#X obj 1425 1282 \$0;
#X msg 1382 1231 \; \$1-output.label-r label_pos 22 12;
#X msg 1425 1308 \; \$1-output.label-r label_pos 18 12;
#X msg 1339 1158 \; \$1-output.label-r label_pos 16 12;
#X msg 1297 1078 \; \$1-output.label-r label_pos 14 12;
#X connect 0 0 1 0;
#X connect 1 0 2 0;
#X connect 1 1 5 0;
#X connect 2 0 3 0;
#X connect 3 0 4 0;
#X connect 5 0 6 0;
#X connect 5 1 6 0;
#X connect 5 2 6 0;
#X connect 6 0 7 0;
#X connect 6 1 9 0;
#X connect 6 2 11 0;
#X connect 7 0 8 0;
#X connect 9 0 10 0;
#X connect 11 0 12 0;
#X connect 13 0 14 0;
#X connect 13 1 16 0;
#X connect 14 0 15 0;
#X connect 15 0 93 0;
#X connect 16 0 17 0;
#X connect 16 1 17 0;
#X connect 16 2 17 0;
#X connect 17 0 18 0;
#X connect 17 1 19 0;
#X connect 17 2 20 0;
#X connect 18 0 94 0;
#X connect 19 0 95 0;
#X connect 20 0 96 0;
#X connect 21 0 22 0;
#X connect 21 1 24 0;
#X connect 22 0 23 0;
#X connect 23 0 97 0;
#X connect 24 0 25 0;
#X connect 24 1 25 0;
#X connect 24 2 25 0;
#X connect 25 0 26 0;
#X connect 25 1 27 0;
#X connect 25 2 28 0;
#X connect 26 0 99 0;
#X connect 27 0 100 0;
#X connect 28 0 101 0;
#X connect 29 0 30 0;
#X connect 29 1 32 0;
#X connect 30 0 31 0;
#X connect 31 0 103 0;
#X connect 32 0 33 0;
#X connect 32 1 33 0;
#X connect 32 2 33 0;
#X connect 33 0 34 0;
#X connect 33 1 35 0;
#X connect 33 2 36 0;
#X connect 34 0 104 0;
#X connect 35 0 105 0;
#X connect 36 0 106 0;
#X connect 37 0 38 0;
#X connect 37 1 40 0;
#X connect 38 0 39 0;
#X connect 39 0 108 0;
#X connect 40 0 41 0;
#X connect 40 1 41 0;
#X connect 40 2 41 0;
#X connect 41 0 42 0;
#X connect 41 1 43 0;
#X connect 41 2 44 0;
#X connect 42 0 109 0;
#X connect 43 0 110 0;
#X connect 44 0 111 0;
#X connect 45 0 46 0;
#X connect 45 1 48 0;
#X connect 46 0 47 0;
#X connect 47 0 139 0;
#X connect 48 0 49 0;
#X connect 48 1 49 0;
#X connect 48 2 49 0;
#X connect 49 0 50 0;
#X connect 49 1 51 0;
#X connect 49 2 52 0;
#X connect 50 0 140 0;
#X connect 51 0 141 0;
#X connect 52 0 142 0;
#X connect 53 0 54 0;
#X connect 53 1 56 0;
#X connect 54 0 55 0;
#X connect 55 0 113 0;
#X connect 56 0 57 0;
#X connect 56 1 57 0;
#X connect 56 2 57 0;
#X connect 57 0 58 0;
#X connect 57 1 59 0;
#X connect 57 2 60 0;
#X connect 58 0 114 0;
#X connect 59 0 115 0;
#X connect 60 0 116 0;
#X connect 61 0 137 0;
#X connect 61 1 63 0;
#X connect 62 0 118 0;
#X connect 63 0 64 0;
#X connect 63 1 64 0;
#X connect 63 2 64 0;
#X connect 64 0 65 0;
#X connect 64 1 66 0;
#X connect 64 2 67 0;
#X connect 65 0 119 0;
#X connect 66 0 120 0;
#X connect 67 0 121 0;
#X connect 68 0 69 0;
#X connect 68 1 71 0;
#X connect 69 0 70 0;
#X connect 70 0 123 0;
#X connect 71 0 72 0;
#X connect 71 1 72 0;
#X connect 71 2 72 0;
#X connect 72 0 73 0;
#X connect 72 1 74 0;
#X connect 72 2 75 0;
#X connect 73 0 124 0;
#X connect 74 0 125 0;
#X connect 75 0 126 0;
#X connect 76 0 77 0;
#X connect 76 1 79 0;
#X connect 77 0 78 0;
#X connect 78 0 128 0;
#X connect 79 0 80 0;
#X connect 79 1 80 0;
#X connect 79 2 80 0;
#X connect 80 0 81 0;
#X connect 80 1 82 0;
#X connect 80 2 83 0;
#X connect 81 0 129 0;
#X connect 82 0 130 0;
#X connect 83 0 131 0;
#X connect 84 0 85 0;
#X connect 84 1 87 0;
#X connect 85 0 86 0;
#X connect 86 0 133 0;
#X connect 87 0 88 0;
#X connect 87 1 88 0;
#X connect 87 2 88 0;
#X connect 88 0 89 0;
#X connect 88 1 90 0;
#X connect 88 2 91 0;
#X connect 89 0 134 0;
#X connect 90 0 135 0;
#X connect 91 0 136 0;
#X connect 92 0 13 0;
#X connect 98 0 21 0;
#X connect 102 0 29 0;
#X connect 107 0 37 0;
#X connect 112 0 53 0;
#X connect 117 0 61 0;
#X connect 122 0 68 0;
#X connect 127 0 76 0;
#X connect 132 0 84 0;
#X connect 137 0 62 0;
#X connect 138 0 45 0;
#X connect 143 0 144 0;
#X connect 143 1 146 0;
#X connect 144 0 145 0;
#X connect 145 0 152 0;
#X connect 146 0 147 0;
#X connect 146 1 147 0;
#X connect 146 2 147 0;
#X connect 147 0 148 0;
#X connect 147 1 149 0;
#X connect 147 2 150 0;
#X connect 148 0 153 0;
#X connect 149 0 154 0;
#X connect 150 0 155 0;
#X connect 151 0 143 0;
#X connect 156 0 160 0;
#X connect 156 1 161 0;
#X connect 157 0 158 0;
#X connect 159 0 156 0;
#X connect 160 0 157 0;
#X connect 161 0 162 0;
#X connect 161 1 162 0;
#X connect 161 2 162 0;
#X connect 161 3 162 0;
#X connect 162 0 163 0;
#X connect 162 1 164 0;
#X connect 162 2 165 0;
#X connect 162 3 166 0;
#X connect 163 0 170 0;
#X connect 164 0 169 0;
#X connect 165 0 167 0;
#X connect 166 0 168 0;
#X restore 21 23 pd labels;
#X obj 508 41 loadbang;
#X msg 508 67 pluginmode;
#X obj 508 93 s pd;
#N canvas 0 50 711 316 toggles 0;
#X obj 309 39 r \$0-page.link-s;
#X msg 29 153 browse https://github.com/DSBhproject;
#X obj 29 185 pdcontrol;
#X obj 336 120 \$0;
#X obj 308 197 \$0;
#X msg 308 223 \; \$1-page.link-r color #ADADAD #ADADAD #ADADAD;
#X obj 309 65 t b b;
#X msg 336 146 \; \$1-page.link-r color #656565 #656565 #ADADAD;
#X obj 309 91 del 125;
#X connect 0 0 6 0;
#X connect 1 0 2 0;
#X connect 3 0 7 0;
#X connect 4 0 5 0;
#X connect 6 0 8 0;
#X connect 6 0 1 0;
#X connect 6 1 3 0;
#X connect 8 0 4 0;
#X restore 21 57 pd toggles;
#X connect 1 0 2 0;
#X connect 2 0 3 0;
#X restore 1011 296 pd gui;
#X obj 953 296 tgl 12 0 \$0-page.link-s \$0-page.link-r DSB\ Audio\ |\ Visit\ Page -148 6 0 14 #adadad #adadad #adadad 0 1;
#N canvas 0 50 450 300 DAWhost 0;
#X obj 39 9 loadbang;
#X msg 39 105 create;
#X obj 39 131 param param1;
#X obj 60 165 daw_storage param1_str;
#X obj 63 72 cyclone/scale 0 100 0 1;
#X obj 39 203 cyclone/scale 0 1 0 100;
#X obj 63 46 r \$0-crackles-level-s;
#X obj 39 233 s \$0-crackles-level-r;
#X obj 229 9 loadbang;
#X msg 229 105 create;
#X obj 253 72 cyclone/scale 0 100 0 1;
#X obj 229 203 cyclone/scale 0 1 0 100;
#X obj 253 46 r \$0-crackles-level-s;
#X obj 229 233 s \$0-crackles-level-r;
#X obj 419 9 loadbang;
#X msg 419 105 create;
#X obj 443 72 cyclone/scale 0 100 0 1;
#X obj 419 203 cyclone/scale 0 1 0 100;
#X obj 609 9 loadbang;
#X msg 609 105 create;
#X obj 633 72 cyclone/scale 0 100 0 1;
#X obj 609 203 cyclone/scale 0 1 0 100;
#X obj 799 9 loadbang;
#X msg 799 105 create;
#X obj 823 72 cyclone/scale 0 100 0 1;
#X obj 799 203 cyclone/scale 0 1 0 100;
#X obj 419 280 loadbang;
#X msg 419 376 create;
#X obj 443 343 cyclone/scale 0 100 0 1;
#X obj 419 474 cyclone/scale 0 1 0 100;
#X obj 609 280 loadbang;
#X msg 609 376 create;
#X obj 799 280 loadbang;
#X msg 799 376 create;
#X obj 823 343 cyclone/scale 0 100 0 1;
#X obj 799 474 cyclone/scale 0 1 0 100;
#X obj 989 280 loadbang;
#X msg 989 376 create;
#X obj 1013 343 cyclone/scale 0 100 0 1;
#X obj 989 474 cyclone/scale 0 1 0 100;
#X obj 443 46 r \$0-hiss-level-s;
#X obj 419 233 s \$0-hiss-level-r;
#X obj 633 46 r \$0-hum-level-s;
#X obj 609 233 s \$0-hum-level-r;
#X obj 823 46 r \$0-clicks-level-s;
#X obj 799 233 s \$0-clicks-level-r;
#X obj 250 165 daw_storage param2_str;
#X obj 229 131 param param2;
#X obj 440 165 daw_storage param3_str;
#X obj 419 131 param param3;
#X obj 609 131 param param4;
#X obj 630 165 daw_storage param4_str;
#X obj 799 131 param param5;
#X obj 820 165 daw_storage param5_str;
#X obj 443 317 r \$0-crackles-density-s;
#X obj 419 504 s \$0-crackles-density-r;
#X obj 633 317 r \$0-hum-pitch-s;
#X obj 609 504 s \$0-hum-pitch-r;
#X obj 633 343 cyclone/scale 40 90 0 1;
#X obj 609 474 cyclone/scale 0 1 40 90;
#X obj 823 317 r \$0-clicks-density-s;
#X obj 799 504 s \$0-clicks-density-r;
#X obj 39 280 loadbang;
#X msg 39 376 create;
#X obj 63 343 cyclone/scale 0 100 0 1;
#X obj 39 474 cyclone/scale 0 1 0 100;
#X obj 39 402 param param6;
#X obj 60 436 daw_storage param6_str;
#X obj 63 317 r \$0-pops-level-s;
#X obj 39 504 s \$0-pops-level-r;
#X obj 229 280 loadbang;
#X msg 229 376 create;
#X obj 253 343 cyclone/scale 0 100 0 1;
#X obj 229 474 cyclone/scale 0 1 0 100;
#X obj 250 436 daw_storage param7_str;
#X obj 229 402 param param7;
#X obj 419 402 param param8;
#X obj 440 436 daw_storage param8_str;
#X obj 630 436 daw_storage param9_str;
#X obj 609 402 param param9;
#X obj 799 402 param param10;
#X obj 820 436 daw_storage param10_str;
#X obj 1010 436 daw_storage param11_str;
#X obj 989 402 param param11;
#X obj 1013 317 r \$0-riaa-curve-s;
#X obj 989 504 s \$0-riaa-curve-r;
#X obj 253 317 r \$0-drive-s;
#X obj 229 504 s \$0-drive-r;
#X obj 1189 280 loadbang;
#X msg 1189 376 create;
#X obj 1213 343 cyclone/scale 0 100 0 1;
#X obj 1189 474 cyclone/scale 0 1 0 100;
#X obj 1213 317 r \$0-mix-s;
#X obj 1189 504 s \$0-mix-r;
#X obj 1210 436 daw_storage param12_str;
#X obj 1189 402 param param12;
#X obj 1419 280 loadbang;
#X msg 1419 376 create;
#X obj 1419 402 param param13;
#X obj 1440 436 daw_storage param13_str;
#X obj 1443 317 r \$0-output-s;
#X obj 1419 504 s \$0-output-r;
#X obj 1443 343 cyclone/scale -24.0824 24.0824 0 1;
#X obj 1419 474 cyclone/scale 0 1 -24.0824 24.0824;
#X connect 0 0 1 0;
#X connect 1 0 2 0;
#X connect 2 0 3 0;
#X connect 2 0 5 0;
#X connect 3 0 5 0;
#X connect 4 0 2 0;
#X connect 5 0 7 0;
#X connect 6 0 4 0;
#X connect 8 0 9 0;
#X connect 9 0 47 0;
#X connect 10 0 47 0;
#X connect 11 0 13 0;
#X connect 12 0 10 0;
#X connect 14 0 15 0;
#X connect 15 0 49 0;
#X connect 16 0 49 0;
#X connect 17 0 41 0;
#X connect 18 0 19 0;
#X connect 19 0 50 0;
#X connect 20 0 50 0;
#X connect 21 0 43 0;
#X connect 22 0 23 0;
#X connect 23 0 52 0;
#X connect 24 0 52 0;
#X connect 25 0 45 0;
#X connect 26 0 27 0;
#X connect 27 0 76 0;
#X connect 28 0 76 0;
#X connect 29 0 55 0;
#X connect 30 0 31 0;
#X connect 31 0 79 0;
#X connect 32 0 33 0;
#X connect 33 0 80 0;
#X connect 34 0 80 0;
#X connect 35 0 61 0;
#X connect 36 0 37 0;
#X connect 37 0 83 0;
#X connect 38 0 83 0;
#X connect 39 0 85 0;
#X connect 40 0 16 0;
#X connect 42 0 20 0;
#X connect 44 0 24 0;
#X connect 46 0 11 0;
#X connect 47 0 11 0;
#X connect 47 0 46 0;
#X connect 48 0 17 0;
#X connect 49 0 17 0;
#X connect 49 0 48 0;
#X connect 50 0 21 0;
#X connect 50 0 51 0;
#X connect 51 0 21 0;
#X connect 52 0 25 0;
#X connect 52 0 53 0;
#X connect 53 0 25 0;
#X connect 54 0 28 0;
#X connect 56 0 58 0;
#X connect 58 0 79 0;
#X connect 59 0 57 0;
#X connect 60 0 34 0;
#X connect 62 0 63 0;
#X connect 63 0 66 0;
#X connect 64 0 66 0;
#X connect 65 0 69 0;
#X connect 66 0 65 0;
#X connect 66 0 67 0;
#X connect 67 0 65 0;
#X connect 68 0 64 0;
#X connect 70 0 71 0;
#X connect 71 0 75 0;
#X connect 72 0 75 0;
#X connect 73 0 87 0;
#X connect 74 0 73 0;
#X connect 75 0 73 0;
#X connect 75 0 74 0;
#X connect 76 0 29 0;
#X connect 76 0 77 0;
#X connect 77 0 29 0;
#X connect 78 0 59 0;
#X connect 79 0 59 0;
#X connect 79 0 78 0;
#X connect 80 0 35 0;
#X connect 80 0 81 0;
#X connect 81 0 35 0;
#X connect 82 0 39 0;
#X connect 83 0 39 0;
#X connect 83 0 82 0;
#X connect 84 0 38 0;
#X connect 86 0 72 0;
#X connect 88 0 89 0;
#X connect 89 0 95 0;
#X connect 90 0 95 0;
#X connect 91 0 93 0;
#X connect 92 0 90 0;
#X connect 94 0 91 0;
#X connect 95 0 91 0;
#X connect 95 0 94 0;
#X connect 96 0 97 0;
#X connect 97 0 98 0;
#X connect 98 0 99 0;
#X connect 98 0 103 0;
#X connect 99 0 103 0;
#X connect 100 0 102 0;
#X connect 102 0 98 0;
#X connect 103 0 101 0;
#X restore 1011 265 pd DAWhost;
#N canvas 0 50 450 300 code 0;
#X obj 9 19 inlet~ In-Left;
#X obj 111 19 inlet~ In-Right;
#X obj 9 44 s~ \$0-left;
#X obj 111 44 s~ \$0-right;
#X obj 99 260 lop~ 1000;
#X obj 99 284 cos~;
#X obj 99 309 clip~ -0.86 0.86;
#X obj 99 124 noise~;
#X obj 99 202 expr~ pow($v1 \, $f2);
#X obj 18 276 *~ 0.0125;
#X obj 99 333 *~, f 21;
#X obj 240 236 pack f 5;
#X obj 240 260 line~;
#X obj 759 260 lop~ 1000;
#X obj 759 284 cos~;
#X obj 759 309 clip~ -0.86 0.86;
#X obj 759 124 noise~;
#X obj 759 202 expr~ pow($v1 \, $f2);
#X obj 678 276 *~ 0.0125;
#X obj 759 333 *~, f 21;
#X obj 900 247 pack f 5;
#X obj 900 271 line~;
#X obj 416 200 *~;
#X obj 484 58 pack f 5;
#X obj 484 82 line~;
#X obj 416 142 *~ 0.1;
#X obj 1076 142 *~ 0.1;
#X obj 416 166 hip~ 1000;
#X obj 1076 166 hip~ 1000;
#X obj 551 170 dsb.bad-osc~ 60 25;
#X obj 551 361 *~;
#X obj 569 310 pack f 5;
#X obj 569 334 line~;
#X obj 551 194 *~ 0.1;
#X obj 1076 271 *~;
#X obj 1214 142 +~ 1;
#X obj 1214 166 *~ 0.5;
#X obj 1214 297 sel 1;
#X obj 1214 273 < 1;
#X obj 1214 321 t b b;
#X obj 1214 404 dsb.click~;
#X obj 1214 428 lop~ 4000;
#X obj 1213 453 lop~ 4000;
#X obj 1246 348 random 100;
#X obj 1246 372 * 0.01;
#X text 32 123 Crackling;
#X text 692 123 Crackling;
#X text 484 170 Hum Noise;
#X text 335 199 Hiss Sound;
#X text 1002 272 Hiss Sound;
#X obj 1214 247 *;
#X obj 1212 509 *~ 0.5;
#X obj 1336 510 *~ 0.5;
#X obj 1212 533 *~;
#X obj 1336 534 *~;
#X obj 1361 429 pack f 5;
#X obj 1361 453 line~;
#X text 1474 383 Pops;
#X obj 100 553 hip~ 5;
#X obj 552 553 hip~ 5;
#X obj 148 662 biquad~;
#X obj 689 509 loadbang;
#X msg 708 643 1.70072 -0.702938 1 -0.721892 -0.186052;
#X obj 175 713 *~;
#X obj 625 726 *~;
#X obj 676 694 dbtorms;
#X text 217 663 RIAA Curve (only valid for a sample rate of: 44100 Hz);
#X obj 727 552 del 1000;
#X msg 727 576 \; pd dsp 1;
#X text 222 681 from http://www.musicdsp.org/showone.php?id=122;
#X msg 676 670 90;
#X obj 160 561 t b f;
#X msg 160 585 1;
#X obj 160 609 -;
#X obj 100 796 *~;
#X obj 175 796 *~;
#X obj 601 682 biquad~;
#X obj 612 585 t b f;
#X msg 612 609 1;
#X obj 612 633 -;
#X obj 556 806 *~;
#X obj 631 806 *~;
#X obj 555 852 *~ 0.75;
#X obj 100 848 *~ 0.75;
#X obj 483 633 r~ \$0-right;
#X obj 222 609 r~ \$0-left;
#X text 658 671 dB;
#X text 1054 689 In1 -> Left Input (audio signal);
#X text 1054 709 In2 -> Right Input (audio signal);
#X text 1054 809 In7/Arg5 -> Hum Freq. Dft: 60;
#X text 1054 749 In4/Arg2 -> Crackling Density. Dft: 4000 (The higher the value the lower the frequency of crackling), f 100;
#X text 728 474 This patch emulates the caracteristic of vinyl recordings by adding hiss and hum noises \, cracklings and pops \, and it also adds a RIAA curve on frecuency response to compensate these types of recordings, f 69;
#X text 1054 729 In3/Arg1 -> Crackling level. Dft: 0.05;
#X text 1054 789 In6/Arg4 -> Hum Level. Dft: 0.025;
#X obj 1512 431 lop~ 1000;
#X obj 1512 407 lop~ 1000;
#X text 1054 829 In8/Arg6 -> Clicks Level. Dft: 0.1;
#X text 1054 849 In9/Arg7 -> Clicks Density. Dft: 1000 (The higher the value \, the lower the frequency of clicks), f 95;
#X obj 1513 142 +~ 1;
#X obj 1513 166 *~ 0.5;
#X obj 1513 286 sel 1;
#X obj 1513 262 < 1;
#X obj 1513 310 t b b;
#X obj 1513 384 dsb.click~;
#X obj 1545 333 random 100;
#X obj 1545 357 * 0.01;
#X obj 1513 236 *;
#X obj 1512 510 *~ 0.5;
#X obj 1635 510 *~ 0.5;
#X obj 1512 534 *~;
#X obj 1635 534 *~;
#X obj 1653 459 pack f 5;
#X obj 1653 483 line~;
#X obj 1512 455 lop~ 1000;
#X text 1054 909 In12/Arg10 -> RIAA Curve. Dft: 0;
#X text 1054 869 In10/Arg8 -> Pops Level. Dft: 0.175;
#X text 1054 889 In11/Arg9 -> Pops Density. Dft: 6000 (The higher the value \, the lower the frequency of clicks), f 94;
#X text 1054 769 In5/Arg3 -> Hiss Level. Dft: 0.005;
#X text 33 909 Soft Clip;
#N canvas 224 224 450 300 rootlaw_panner~ 0;
#X obj 142 89 t b f;
#X msg 142 113 1;
#X obj 142 137 -;
#X obj 99 181 sqrt;
#X obj 81 209 *~;
#X obj 156 209 *~;
#X obj 174 182 sqrt;
#X obj 81 28 inlet~;
#X obj 81 256 outlet~ left;
#X obj 132 30 inlet;
#X obj 156 233 outlet~ right;
#X obj 142 61 f \$1;
#X obj 192 27 loadbang;
#X connect 0 0 1 0;
#X connect 0 1 2 1;
#X connect 0 1 6 0;
#X connect 1 0 2 0;
#X connect 2 0 3 0;
#X connect 3 0 4 1;
#X connect 4 0 8 0;
#X connect 5 0 10 0;
#X connect 6 0 5 1;
#X connect 7 0 4 0;
#X connect 7 0 5 0;
#X connect 9 0 0 0;
#X connect 11 0 0 0;
#X connect 12 0 11 0;
#X restore 1212 483 pd rootlaw_panner~;
#N canvas 224 224 450 300 rootlaw_panner~ 0;
#X obj 142 89 t b f;
#X msg 142 113 1;
#X obj 142 137 -;
#X obj 99 181 sqrt;
#X obj 81 209 *~;
#X obj 156 209 *~;
#X obj 174 182 sqrt;
#X obj 81 28 inlet~;
#X obj 81 256 outlet~ left;
#X obj 132 30 inlet;
#X obj 156 233 outlet~ right;
#X obj 142 61 f \$1;
#X obj 192 27 loadbang;
#X connect 0 0 1 0;
#X connect 0 1 2 1;
#X connect 0 1 6 0;
#X connect 1 0 2 0;
#X connect 2 0 3 0;
#X connect 3 0 4 1;
#X connect 4 0 8 0;
#X connect 5 0 10 0;
#X connect 6 0 5 1;
#X connect 7 0 4 0;
#X connect 7 0 5 0;
#X connect 9 0 0 0;
#X connect 11 0 0 0;
#X connect 12 0 11 0;
#X restore 1512 483 pd rootlaw_panner~;
#X obj 99 885 *~;
#X obj 100 908 expr~ tanh($v1);
#X obj 315 784 pack f 10;
#X obj 315 808 line~;
#X text 483 918 Soft Clip;
#X obj 554 896 *~;
#X obj 555 919 expr~ tanh($v1);
#X msg 758 670 1.6652 -0.6788 1 -0.6854 -0.172;
#X text 894 689 48000hz?;
#X text 1054 929 In13/Arg11 -> Drive. Dft: 1 (1-10);
#X obj 881 22 r \$0-crackles-density-s;
#X obj 881 74 int;
#X obj 240 18 r \$0-crackles-level-s;
#X obj 240 286 lop~ 5;
#X obj 900 297 lop~ 5;
#X obj 240 44 cyclone/scale 0 100 0 1 2;
#X obj 484 8 r \$0-hiss-level-s;
#X obj 484 34 cyclone/scale 0 100 0 0.25 2;
#X obj 569 221 r \$0-hum-level-s;
#X obj 569 247 cyclone/scale 0 100 0 0.25 2;
#X obj 551 92 r \$0-hum-pitch-s;
#X obj 1361 322 r \$0-clicks-level-s;
#X obj 1361 348 cyclone/scale 0 100 0 1 1.5;
#X obj 1361 80 int;
#X obj 1361 27 r \$0-clicks-density-s;
#X obj 881 48 cyclone/scale 0 100 8000 500 0.5;
#X obj 1214 190 else/s2f~;
#X obj 1513 190 else/s2f~;
#X text 1164 404 Clicks;
#X obj 1653 384 cyclone/scale 0 100 0 1 1.5;
#X obj 1653 357 r \$0-pops-level-s;
#X floatatom 1682 419 5 0 0 0 - - - 12;
#X obj 1593 149 int;
#X obj 1593 90 r \$0-pops-density-s;
#X obj 1593 123 cyclone/scale 0 100 8000 100 0.5;
#X obj 1361 54 cyclone/scale 0 100 8000 100 0.5;
#X obj 315 728 r \$0-drive-s;
#X obj 315 755 cyclone/scale 0 100 1 16;
#X obj 222 1194 outlet~;
#X obj 643 1167 outlet~;
#X obj 222 968 expr~ ($v1 * (1 - $v3 * $v3)) + ($v2 * ($v3 * $v3));
#X obj 643 968 expr~ ($v1 * (1 - $v3 * $v3)) + ($v2 * ($v3 * $v3));
#X obj 222 1140 *~;
#X obj 643 1140 *~;
#X obj 669 1006 r \$0-output-s;
#X obj 669 1063 pack f 10;
#X obj 669 1089 line~;
#X text 136 1099 Output Gain;
#X obj 759 801 r \$0-mix-s;
#X obj 759 827 cyclone/scale 0 100 0 1;
#X obj 759 853 pack f 10;
#X obj 759 879 line~;
#X obj 409 429 r \$0-riaa-curve-s;
#X obj 236 729 pack f 10;
#X obj 236 755 line~;
#X obj 120 729 pack f 10;
#X obj 120 755 line~;
#X obj 676 744 pack f 10;
#X obj 676 770 line~;
#X obj 587 744 pack f 10;
#X obj 587 770 line~;
#X obj 409 455 cyclone/scale 0 100 0 1;
#X obj 669 1033 else/db2lin;
#X obj 885 569 samplerate~;
#X obj 885 595 route 44100 48000;
#X obj 921 778 samplerate~;
#X obj 921 804 route 44100 48000;
#X obj 921 738 bng 25 250 50 0 empty empty empty 17 7 0 10 #333333 #eeeeee #111111;
#X connect 0 0 2 0;
#X connect 1 0 3 0;
#X connect 4 0 5 0;
#X connect 5 0 6 0;
#X connect 6 0 10 0;
#X connect 7 0 8 0;
#X connect 7 0 25 0;
#X connect 7 0 98 0;
#X connect 8 0 4 0;
#X connect 8 0 9 0;
#X connect 9 0 10 0;
#X connect 10 0 58 0;
#X connect 11 0 12 0;
#X connect 12 0 134 0;
#X connect 13 0 14 0;
#X connect 14 0 15 0;
#X connect 15 0 19 0;
#X connect 16 0 17 0;
#X connect 16 0 26 0;
#X connect 16 0 35 0;
#X connect 17 0 13 0;
#X connect 17 0 18 0;
#X connect 18 0 19 0;
#X connect 19 0 59 0;
#X connect 20 0 21 0;
#X connect 21 0 135 0;
#X connect 22 0 58 0;
#X connect 23 0 24 0;
#X connect 24 0 22 1;
#X connect 24 0 34 1;
#X connect 25 0 27 0;
#X connect 26 0 28 0;
#X connect 27 0 22 0;
#X connect 28 0 34 0;
#X connect 29 0 33 0;
#X connect 30 0 58 0;
#X connect 30 0 59 0;
#X connect 31 0 32 0;
#X connect 32 0 30 1;
#X connect 33 0 30 0;
#X connect 34 0 59 0;
#X connect 35 0 36 0;
#X connect 36 0 147 0;
#X connect 37 0 39 0;
#X connect 38 0 37 0;
#X connect 39 0 40 0;
#X connect 39 1 43 0;
#X connect 40 0 41 0;
#X connect 41 0 42 0;
#X connect 42 0 119 0;
#X connect 43 0 44 0;
#X connect 44 0 119 1;
#X connect 50 0 38 0;
#X connect 51 0 53 0;
#X connect 52 0 54 0;
#X connect 53 0 58 0;
#X connect 54 0 59 0;
#X connect 55 0 56 0;
#X connect 56 0 54 1;
#X connect 56 0 53 1;
#X connect 58 0 74 0;
#X connect 58 0 60 0;
#X connect 59 0 80 0;
#X connect 59 0 76 0;
#X connect 60 0 63 0;
#X connect 61 0 70 0;
#X connect 61 0 67 0;
#X connect 61 0 184 0;
#X connect 62 0 60 0;
#X connect 62 0 76 0;
#X connect 63 0 75 0;
#X connect 64 0 81 0;
#X connect 65 0 63 1;
#X connect 65 0 64 1;
#X connect 67 0 68 0;
#X connect 70 0 65 0;
#X connect 71 0 72 0;
#X connect 71 1 73 1;
#X connect 71 1 174 0;
#X connect 72 0 73 0;
#X connect 73 0 176 0;
#X connect 74 0 83 0;
#X connect 75 0 83 0;
#X connect 76 0 64 0;
#X connect 77 0 78 0;
#X connect 77 1 79 1;
#X connect 77 1 178 0;
#X connect 78 0 79 0;
#X connect 79 0 180 0;
#X connect 80 0 82 0;
#X connect 81 0 82 0;
#X connect 82 0 126 0;
#X connect 83 0 121 0;
#X connect 84 0 80 0;
#X connect 84 0 81 0;
#X connect 84 0 162 0;
#X connect 85 0 74 0;
#X connect 85 0 75 0;
#X connect 85 0 161 0;
#X connect 94 0 113 0;
#X connect 95 0 94 0;
#X connect 98 0 99 0;
#X connect 99 0 148 0;
#X connect 100 0 102 0;
#X connect 101 0 100 0;
#X connect 102 0 103 0;
#X connect 102 1 104 0;
#X connect 103 0 95 0;
#X connect 104 0 105 0;
#X connect 105 0 120 1;
#X connect 106 0 101 0;
#X connect 107 0 109 0;
#X connect 108 0 110 0;
#X connect 109 0 58 0;
#X connect 110 0 59 0;
#X connect 111 0 112 0;
#X connect 112 0 110 1;
#X connect 112 0 109 1;
#X connect 113 0 120 0;
#X connect 119 0 51 0;
#X connect 119 1 52 0;
#X connect 120 0 107 0;
#X connect 120 1 108 0;
#X connect 121 0 122 0;
#X connect 122 0 161 1;
#X connect 123 0 124 0;
#X connect 124 0 121 1;
#X connect 124 0 126 1;
#X connect 126 0 127 0;
#X connect 127 0 162 1;
#X connect 128 0 76 0;
#X connect 128 0 60 0;
#X connect 131 0 146 0;
#X connect 132 0 8 1;
#X connect 132 0 17 1;
#X connect 133 0 136 0;
#X connect 134 0 10 1;
#X connect 135 0 19 1;
#X connect 136 0 11 0;
#X connect 136 0 20 0;
#X connect 137 0 138 0;
#X connect 138 0 23 0;
#X connect 139 0 140 0;
#X connect 140 0 31 0;
#X connect 141 0 29 0;
#X connect 142 0 143 0;
#X connect 143 0 55 0;
#X connect 144 0 50 1;
#X connect 145 0 156 0;
#X connect 146 0 132 0;
#X connect 147 0 50 0;
#X connect 148 0 106 0;
#X connect 150 0 111 0;
#X connect 150 0 152 0;
#X connect 151 0 150 0;
#X connect 153 0 106 1;
#X connect 154 0 155 0;
#X connect 155 0 153 0;
#X connect 156 0 144 0;
#X connect 157 0 158 0;
#X connect 158 0 123 0;
#X connect 161 0 163 0;
#X connect 162 0 164 0;
#X connect 163 0 159 0;
#X connect 164 0 160 0;
#X connect 165 0 183 0;
#X connect 166 0 167 0;
#X connect 167 0 163 1;
#X connect 167 0 164 1;
#X connect 169 0 170 0;
#X connect 170 0 171 0;
#X connect 171 0 172 0;
#X connect 172 0 161 2;
#X connect 172 0 162 2;
#X connect 173 0 182 0;
#X connect 174 0 175 0;
#X connect 175 0 75 1;
#X connect 176 0 177 0;
#X connect 177 0 74 1;
#X connect 178 0 179 0;
#X connect 179 0 81 1;
#X connect 180 0 181 0;
#X connect 181 0 80 1;
#X connect 182 0 71 0;
#X connect 182 0 77 0;
#X connect 183 0 166 0;
#X connect 184 0 185 0;
#X connect 185 0 62 0;
#X connect 185 1 128 0;
#X connect 186 0 187 0;
#X connect 188 0 186 0;
#X restore 1011 177 pd code;
#X obj 870 102 else/knob 50 0 100 0 100 \$0-mix-s \$0-mix-r #cbc5b9 #7c7c7c #81858e 0 0 0 0 0 320 0 0 0 empty empty 0 12 6 -15 0 1 0 0;
#X obj 865 77 cnv 15 9 9 empty empty Mix 20 12 0 14 #e4ded4 #81858e 0;
#X obj 862 152 cnv 15 9 9 \$0-mix.label-s \$0-mix.label-r 100\ % 20 12 0 14 #dcd6cd #81858e 0;
#X obj 809 216 else/knob 50 -24.0824 24.0824 0 0 \$0-output-s \$0-output-r #737373 #7c7c7c #bdbdbd 0 0 132 0 0 320 0 0 0 empty empty 0 12 6 -15 0 1 1 0;
#X obj 794 189 cnv 15 9 9 empty empty Output 20 12 0 14 #e4ded4 #737373 0;
#X obj 793 265 cnv 15 9 9 \$0-output.label-s \$0-output.label-r 0.00\ dB 22 12 0 14 #dcd6cd #737373 0;
#N canvas 0 50 450 300 init 0;
#X obj 22 26 loadbang;
#X obj 22 52 \$0;
#X msg 22 78 \; \$1-crackles-level-r 22 \; \$1-crackles-density-r 28 \; \$1-hiss-level-r 15 \; \$1-hum-pitch-r 60 \; \$1-hum-level-r 32 \; \$1-clicks-density-r 78 \; \$1-clicks-level-r 21 \; \$1-pops-density-r 6 \; \$1-pops-level-r 31 \; \$1-riaa-curve-r 15 \; \$1-drive-r 15 \; \$1-mix-r 100 \; \$1-output-r 0;
#X connect 0 0 1 0;
#X connect 1 0 2 0;
#X restore 1011 239 pd init;
#X obj 1011 209 dac~, f 8;
#X obj 1011 142 adc~;
#X connect 37 0 45 0;
#X connect 37 1 45 1;
#X connect 46 0 37 0;
#X connect 46 1 37 1;
